<svg width="56" height="56" viewBox="0 0 56 56" fill="none" xmlns="http://www.w3.org/2000/svg">
<rect width="56" height="56" rx="12" fill="#09090B"/>
<g clip-path="url(#clip0_512_5)">
<path d="M23.2373 14.2266C17.0373 14.2266 13.6587 19.7586 13.6587 23.5572C13.6587 26.6159 16.592 27.9559 19.3253 27.9559L19.3173 27.9479C24.976 27.9479 28.896 22.8092 28.896 18.6172C28.896 15.5639 25.996 14.2266 23.2373 14.2266ZM38.3413 14.2266C32.1413 14.2266 28.7627 19.7586 28.7627 23.5572C28.7627 26.6159 31.696 27.9559 34.4293 27.9559L34.4213 27.9479C40.0813 27.9466 44 22.8092 44 18.6172C44 15.5639 41.0933 14.2266 38.3413 14.2266ZM30.896 31.3599L34.1427 33.8052C31.2493 36.5652 25.9773 38.5052 21.672 38.0319C19.6767 37.8062 17.7711 37.0784 16.1333 35.9165C14.4955 34.7547 13.179 33.1966 12.3067 31.3879H12C12.5387 34.1725 13.987 36.6993 16.1175 38.5716C18.248 40.4438 20.9399 41.5554 23.7707 41.7319C28.856 42.0519 33.5347 40.5252 37.0333 37.5586L37.028 37.5679L38.468 41.5519L40.5413 31.3879L30.896 31.3599Z" fill="white"/>
</g>
<defs>
<clipPath id="clip0_512_5">
<rect width="32" height="32" fill="white" transform="translate(12 12)"/>
</clipPath>
</defs>
</svg>
